<svg width="24" height="25" viewBox="0 0 24 25" fill="none" xmlns="http://www.w3.org/2000/svg">
<path d="M13.9988 7.5L16.9988 10.5M4.99878 6.5V10.5M18.9988 14.5V18.5M9.99878 2.5V4.5M6.99878 8.5H2.99878M20.9988 16.5H16.9988M10.9988 3.5H8.99878M21.6388 4.1398L20.3588 2.8598C20.2463 2.74612 20.1124 2.65587 19.9648 2.59428C19.8171 2.53269 19.6588 2.50098 19.4988 2.50098C19.3389 2.50098 19.1805 2.53269 19.0329 2.59428C18.8853 2.65587 18.7513 2.74612 18.6388 2.8598L2.35882 19.1398C2.24514 19.2523 2.15489 19.3863 2.0933 19.5339C2.03171 19.6815 2 19.8399 2 19.9998C2 20.1598 2.03171 20.3181 2.0933 20.4657C2.15489 20.6133 2.24514 20.7473 2.35882 20.8598L3.63882 22.1398C3.75065 22.2547 3.88436 22.346 4.03207 22.4084C4.17978 22.4708 4.33849 22.5029 4.49882 22.5029C4.65916 22.5029 4.81787 22.4708 4.96558 22.4084C5.11329 22.346 5.247 22.2547 5.35882 22.1398L21.6388 5.8598C21.7537 5.74798 21.8451 5.61427 21.9074 5.46656C21.9698 5.31885 22.0019 5.16014 22.0019 4.9998C22.0019 4.83947 21.9698 4.68076 21.9074 4.53305C21.8451 4.38534 21.7537 4.25162 21.6388 4.1398Z" stroke="black" stroke-width="2" stroke-linecap="round" stroke-linejoin="round"/>
</svg>
